<svg width="34" height="30" viewBox="0 0 34 30" fill="none" xmlns="http://www.w3.org/2000/svg">
<g id="clouds">
<path id="cloud" d="M19.96 9.23999C19.96 6.47999 17.74 4.31999 15.04 4.31999C14.44 4.31999 13.9 4.43999 13.36 4.61999C13.18 2.57999 11.5 0.899994 9.4 0.899994C7.18 0.899994 5.38 2.69999 5.38 4.91999C5.38 5.39999 5.5 5.87999 5.62 6.29999C5.44 6.23999 5.2 6.23999 5.02 6.23999C2.8 6.23999 1 8.03999 1 10.26C1 12.42 2.74 14.22 4.9 14.28H15.22C17.86 13.98 19.96 11.88 19.96 9.23999Z" fill="#91C0F8" stroke="white" stroke-width="0.72" stroke-linejoin="round"/>
<path id="Vector" d="M32.7 20.4C32.7 15.8 29 12.2 24.5 12.2C23.5 12.2 22.6 12.4 21.7 12.7C21.4 9.3 18.6 6.5 15.1 6.5C11.4 6.5 8.40001 9.5 8.40001 13.2C8.40001 14 8.6 14.8 8.8 15.5C8.5 15.4 8.1 15.4 7.8 15.4C4.1 15.4 1.10001 18.4 1.10001 22.1C1.10001 25.7 4.00001 28.7 7.60001 28.8H24.8C29.2 28.3 32.7 24.8 32.7 20.4Z" fill="#57A0EE" stroke="white" stroke-width="1.2" stroke-linejoin="round"/>
</g>
</svg>
