<svg width="42" height="44" viewBox="0 0 42 44" fill="none" xmlns="http://www.w3.org/2000/svg">
<g id="rainy">
<g id="rain">
<g id="Group 1">
<path id="Vector" d="M23.3278 33.2851V35.2851" stroke="#91C0F8" stroke-width="2" stroke-linecap="round"/>
<path id="Vector_2" d="M23.4428 40.0629V42.0629" stroke="#91C0F8" stroke-width="2" stroke-linecap="round"/>
</g>
<g id="Group 3">
<path id="Vector_3" d="M29.2946 31.9385V33.9385" stroke="#91C0F8" stroke-width="2" stroke-linecap="round"/>
<path id="Vector_4" d="M29.3464 37.9911V39.9911" stroke="#91C0F8" stroke-width="2" stroke-linecap="round"/>
</g>
</g>
<g id="Group">
<g id="sun">
<g id="Group_2">
<g id="Group_3">
<path id="Vector_5" d="M13 22V25" stroke="#FFA500" stroke-width="2" stroke-linecap="round"/>
</g>
<g id="Group_4">
<path id="Vector_6" d="M6.63603 19.364L4.51471 21.4853" stroke="#FFA500" stroke-width="2" stroke-linecap="round"/>
</g>
<g id="Group_5">
<path id="Vector_7" d="M4 13H1" stroke="#FFA500" stroke-width="2" stroke-linecap="round"/>
</g>
<g id="Group_6">
<path id="Vector_8" d="M6.63603 6.63603L4.51471 4.51471" stroke="#FFA500" stroke-width="2" stroke-linecap="round"/>
</g>
<g id="Group_7">
<path id="Vector_9" d="M13 4V1" stroke="#FFA500" stroke-width="2" stroke-linecap="round"/>
</g>
<g id="Group_8">
<path id="Vector_10" d="M19.364 6.63603L21.4853 4.51471" stroke="#FFA500" stroke-width="2" stroke-linecap="round"/>
</g>
<g id="Group_9">
<path id="Vector_11" d="M22 13H25" stroke="#FFA500" stroke-width="2" stroke-linecap="round"/>
</g>
<g id="Group_10">
<path id="Vector_12" d="M19.364 19.364L21.4853 21.4853" stroke="#FFA500" stroke-width="2" stroke-linecap="round"/>
</g>
</g>
<path id="Vector_13" d="M13 18C15.7614 18 18 15.7614 18 13C18 10.2386 15.7614 8 13 8C10.2386 8 8 10.2386 8 13C8 15.7614 10.2386 18 13 18Z" fill="#FFA500" stroke="#FFA500" stroke-width="2"/>
</g>
<path id="cloud" d="M40.7 21.4C40.7 16.8 37 13.2 32.5 13.2C31.5 13.2 30.6 13.4 29.7 13.7C29.4 10.3 26.6 7.5 23.1 7.5C19.4 7.5 16.4 10.5 16.4 14.2C16.4 15 16.6 15.8 16.8 16.5C16.5 16.4 16.1 16.4 15.8 16.4C12.1 16.4 9.10001 19.4 9.10001 23.1C9.10001 26.7 12 29.7 15.6 29.8H32.8C37.2 29.3 40.7 25.8 40.7 21.4Z" fill="#57A0EE" stroke="white" stroke-width="1.2" stroke-linejoin="round"/>
</g>
</g>
</svg>
