<svg width="34" height="32" viewBox="0 0 34 32" fill="none" xmlns="http://www.w3.org/2000/svg">
<g id="snowy">
<g id="snow">
<g id="Group">
<path id="Vector" d="M8 25.5V30.5" stroke="#57A0EE" stroke-width="1.2" stroke-linecap="round"/>
<path id="Vector_2" d="M9.76777 26.2322L6.23223 29.7678" stroke="#57A0EE" stroke-linecap="round"/>
<path id="Vector_3" d="M10.5 28H5.5" stroke="#57A0EE" stroke-linecap="round"/>
<path id="Vector_4" d="M9.76777 29.7678L6.23223 26.2322" stroke="#57A0EE" stroke-linecap="round"/>
</g>
<g id="Group_2">
<path id="Vector_5" d="M16 25.5V30.5" stroke="#57A0EE" stroke-width="1.2" stroke-linecap="round"/>
<path id="Vector_6" d="M17.7678 26.2322L14.2322 29.7678" stroke="#57A0EE" stroke-linecap="round"/>
<path id="Vector_7" d="M18.5 28H13.5" stroke="#57A0EE" stroke-linecap="round"/>
<path id="Vector_8" d="M17.7678 29.7678L14.2322 26.2322" stroke="#57A0EE" stroke-linecap="round"/>
</g>
<g id="Group_3">
<path id="Vector_9" d="M25 25.5V30.5" stroke="#57A0EE" stroke-width="1.2" stroke-linecap="round"/>
<path id="Vector_10" d="M26.7678 26.2322L23.2322 29.7678" stroke="#57A0EE" stroke-linecap="round"/>
<path id="Vector_11" d="M27.5 28H22.5" stroke="#57A0EE" stroke-linecap="round"/>
<path id="Vector_12" d="M26.7678 29.7678L23.2322 26.2322" stroke="#57A0EE" stroke-linecap="round"/>
</g>
</g>
<path id="Vector_13" d="M32.7 15.4C32.7 10.8 29 7.2 24.5 7.2C23.5 7.2 22.6 7.4 21.7 7.7C21.4 4.3 18.6 1.5 15.1 1.5C11.4 1.5 8.4 4.5 8.4 8.2C8.4 9 8.6 9.8 8.8 10.5C8.5 10.4 8.1 10.4 7.8 10.4C4.1 10.4 1.1 13.4 1.1 17.1C1.1 20.7 4 23.7 7.6 23.8H24.8C29.2 23.3 32.7 19.8 32.7 15.4Z" fill="#57A0EE" stroke="white" stroke-width="1.2" stroke-linejoin="round"/>
</g>
</svg>
