<svg width="640" height="512" viewBox="0 0 640 512" fill="none" xmlns="http://www.w3.org/2000/svg">
<path d="M45.9775 142.419C61.1675 129.161 77.085 117.231 94.6113 106.155C96.6725 104.853 99.64 106.412 98.95 108.439C89.1263 137.324 71.9625 165.87 45.5037 187.091C44.315 172.235 44.2975 157.255 45.9775 142.419Z" fill="#FF901D"/>
<path d="M45.505 187.102C30.2287 172.354 17.1013 157.106 5.27375 140.644C3.92125 138.762 0.323752 139.433 0.186252 141.602C-1.9475 175.323 14.1575 214.779 53.395 230.693C49.485 216.353 46.6675 201.76 45.505 187.102Z" fill="#FF901D"/>
<path d="M53.3925 230.682C63.0062 214.857 73.7675 200.134 86.3812 185.863C87.8775 184.17 91.2337 184.946 91.3425 187.018C92.8787 216.147 86.6312 246.939 69.185 272.509C62.7175 258.899 57.2625 244.919 53.3925 230.682Z" fill="#FF901D"/>
<path d="M69.1888 272.519C49.3525 262.32 31.2325 251.169 13.8513 238.643C11.8463 237.198 8.70125 238.707 9.38 240.796C19.8513 273.005 49.7962 306.058 92.4287 311.896C83.5662 299.236 75.6275 286.095 69.1888 272.519Z" fill="#FF901D"/>
<path d="M92.4212 311.887C95.8962 294.623 100.866 278.154 107.785 261.689C108.607 259.731 112.084 259.693 112.946 261.641C125.046 288.969 129.947 319.8 122.647 348.134C111.55 336.644 101.284 324.569 92.4212 311.887Z" fill="#FF901D"/>
<path d="M122.655 348.143C100.044 343.018 78.6813 336.609 57.525 328.753C55.0813 327.845 52.6313 330.021 54.04 331.858C75.7925 360.237 116.517 384.807 159.411 380.573C146.244 370.481 133.801 359.7 122.655 348.143Z" fill="#FF901D"/>
<path d="M159.401 380.566C156.316 363.172 155.005 346.207 155.611 328.768C155.683 326.701 158.998 325.854 160.533 327.518C182.198 351.016 198.36 379.56 202.227 408.499C187.163 400.029 172.698 390.771 159.401 380.566Z" fill="#FF901D"/>
<path d="M255.129 424.371C237.817 417.542 221.994 410.112 208.095 402.29C208.091 402.288 208.089 402.287 208.085 402.285C208.082 402.284 208.081 402.282 208.079 402.281C192.567 393.561 178.582 384.442 166.507 375.175C166.505 375.173 166.503 375.17 166.5 375.168C152.946 364.782 140.936 354.188 130.801 343.679C130.799 343.676 130.795 343.673 130.793 343.67C130.791 343.669 130.791 343.668 130.79 343.667C119.358 331.829 109.479 319.986 101.429 308.464C101.425 308.458 101.42 308.453 101.416 308.447C92.2863 295.4 84.695 282.541 78.855 270.225C78.8525 270.22 78.85 270.216 78.8475 270.212V270.211C72.1775 256.17 67.0163 242.504 63.505 229.592C63.505 229.59 63.5038 229.589 63.5038 229.588C59.4725 214.803 56.8938 200.566 55.84 187.275C55.84 187.268 55.8375 187.262 55.8375 187.256C54.6125 171.949 54.765 157.359 56.2913 143.892C56.31 143.729 56.31 143.567 56.315 143.405C58.33 122.58 63.1488 101.705 70.6613 81.348C72.1713 77.255 69.2475 72.958 64.1313 71.75C59.0175 70.541 53.6438 72.879 52.1338 76.974C44.1575 98.589 39.0588 120.768 36.98 142.895C36.9663 143.046 36.97 143.194 36.9663 143.343C35.4388 157.365 35.295 172.463 36.5588 188.246C36.5588 188.249 36.5588 188.251 36.5588 188.254C37.6738 202.309 40.385 217.309 44.6188 232.84C44.6225 232.852 44.6238 232.865 44.6263 232.877C48.34 246.537 53.7775 260.946 60.7888 275.701C60.79 275.703 60.79 275.705 60.7913 275.707C66.97 288.735 74.9675 302.292 84.5625 316.001C84.5638 316.003 84.565 316.005 84.5663 316.007C84.57 316.012 84.5725 316.016 84.5763 316.02C84.5763 316.02 84.5763 316.02 84.5775 316.021C93.0913 328.201 103.495 340.681 115.503 353.115C115.508 353.12 115.513 353.123 115.516 353.128C126.23 364.235 138.879 375.399 153.113 386.308C153.116 386.311 153.119 386.314 153.123 386.317C165.904 396.128 180.657 405.753 196.975 414.926C196.977 414.927 196.979 414.928 196.981 414.929C211.691 423.21 228.381 431.05 246.585 438.232C247.96 438.774 249.416 439.031 250.85 439.031C254.411 439.031 257.839 437.448 259.52 434.72C261.879 430.892 259.912 426.259 255.129 424.371Z" fill="#F7BC14"/>
<path d="M603.034 143.343C603.03 143.194 603.034 143.047 603.02 142.897C600.941 120.766 595.842 98.586 587.866 76.975C586.356 72.883 580.986 70.549 575.867 71.752C570.751 72.96 567.829 77.258 569.339 81.351C576.85 101.703 581.669 122.577 583.685 143.404C583.691 143.567 583.691 143.73 583.71 143.894C585.236 157.356 585.389 171.947 584.164 187.26C584.164 187.263 584.164 187.266 584.164 187.268C584.164 187.271 584.162 187.273 584.162 187.276C583.109 200.561 580.53 214.797 576.497 229.589C576.497 229.59 576.496 229.592 576.496 229.593C572.987 242.505 567.825 256.171 561.154 270.211C561.153 270.213 561.152 270.214 561.151 270.216C561.15 270.22 561.147 270.223 561.145 270.226C555.306 282.541 547.712 295.404 538.575 308.461C538.574 308.462 538.572 308.464 538.571 308.465C530.522 319.984 520.644 331.827 509.209 343.668C509.206 343.671 509.204 343.674 509.201 343.677C509.2 343.678 509.2 343.678 509.199 343.679C499.068 354.184 487.055 364.778 473.5 375.168C473.498 375.17 473.495 375.173 473.493 375.175C461.423 384.439 447.435 393.559 431.92 402.281C431.916 402.283 431.913 402.286 431.908 402.289C431.906 402.289 431.905 402.29 431.904 402.29C418.005 410.114 402.181 417.543 384.87 424.371C380.085 426.258 378.119 430.891 380.479 434.718C382.16 437.448 385.586 439.03 389.149 439.03C390.583 439.03 392.039 438.773 393.413 438.231C411.614 431.051 428.301 423.212 443.011 414.932C443.016 414.929 443.021 414.928 443.026 414.925C459.346 405.749 474.1 396.124 486.878 386.316C486.881 386.313 486.884 386.31 486.888 386.307C501.128 375.391 513.78 364.225 524.491 353.119C524.492 353.119 524.493 353.118 524.494 353.117C524.495 353.116 524.496 353.115 524.497 353.114C536.511 340.672 546.921 328.187 555.434 316.006C555.44 315.998 555.444 315.99 555.449 315.982C565.041 302.274 573.035 288.723 579.206 275.707C579.206 275.706 579.207 275.706 579.207 275.704C579.207 275.703 579.209 275.703 579.209 275.701C586.216 260.954 591.65 246.554 595.364 232.9C595.365 232.897 595.366 232.895 595.368 232.892C599.609 217.335 602.325 202.317 603.44 188.253C603.441 188.242 603.44 188.232 603.44 188.222C604.704 172.442 604.56 157.352 603.034 143.343Z" fill="#F7BC14"/>
<path d="M594.022 142.419C578.832 129.161 562.915 117.231 545.389 106.155C543.327 104.853 540.36 106.412 541.05 108.439C550.874 137.324 568.037 165.87 594.496 187.091C595.685 172.235 595.702 157.255 594.022 142.419Z" fill="#FF901D"/>
<path d="M594.495 187.102C609.771 172.354 622.899 157.106 634.726 140.644C636.079 138.762 639.676 139.433 639.814 141.602C641.947 175.323 625.842 214.779 586.605 230.693C590.515 216.353 593.332 201.76 594.495 187.102Z" fill="#FF901D"/>
<path d="M586.607 230.682C576.994 214.857 566.232 200.134 553.619 185.863C552.122 184.17 548.766 184.946 548.658 187.018C547.121 216.147 553.369 246.939 570.815 272.509C577.282 258.899 582.737 244.919 586.607 230.682Z" fill="#FF901D"/>
<path d="M570.811 272.519C590.647 262.32 608.768 251.169 626.149 238.643C628.154 237.198 631.299 238.707 630.62 240.796C620.149 273.005 590.204 306.058 547.571 311.896C556.434 299.236 564.373 286.095 570.811 272.519Z" fill="#FF901D"/>
<path d="M547.579 311.887C544.104 294.623 539.134 278.154 532.215 261.689C531.392 259.731 527.916 259.693 527.054 261.641C514.954 288.969 510.052 319.8 517.352 348.134C528.45 336.644 538.716 324.569 547.579 311.887Z" fill="#FF901D"/>
<path d="M517.345 348.143C539.956 343.018 561.319 336.609 582.475 328.753C584.919 327.845 587.369 330.021 585.96 331.858C564.208 360.237 523.483 384.807 480.589 380.573C493.756 370.481 506.199 359.7 517.345 348.143Z" fill="#FF901D"/>
<path d="M480.599 380.566C483.684 363.172 484.995 346.207 484.389 328.768C484.317 326.701 481.003 325.854 479.468 327.518C457.803 351.016 441.64 379.56 437.772 408.499C452.837 400.029 467.303 390.771 480.599 380.566Z" fill="#FF901D"/>
<path d="M428.542 441H211.458C208.311 441 206.127 438.028 207.217 435.228L223.339 393.803C223.994 392.118 225.686 391 227.579 391H412.421C414.314 391 416.006 392.118 416.661 393.803L432.783 435.228C433.873 438.028 431.689 441 428.542 441Z" fill="#FFB125"/>
<path d="M432.786 435.228L416.848 393.803C416.2 392.118 414.527 391 412.655 391H369.067L388.303 441H428.593C431.704 441 433.863 438.028 432.786 435.228Z" fill="#FF901D"/>
</svg>
